<svg width="14" height="14" viewBox="0 0 14 14" fill="none" xmlns="http://www.w3.org/2000/svg">
<path d="M6.053 0.00282776C6.3145 -0.0212598 6.56558 0.110056 6.6946 0.338765C6.82356 0.567583 6.80666 0.851115 6.65066 1.0624C5.47375 2.65461 5.63837 4.86836 7.03835 6.26845C8.43837 7.66847 10.6522 7.83389 12.2444 6.65712C12.4557 6.50093 12.7391 6.4832 12.968 6.6122C13.1968 6.74114 13.3289 6.99232 13.305 7.2538C12.9808 10.7618 9.9825 13.4128 6.46121 13.3046C2.94007 13.1962 0.11143 10.3668 0.00319773 6.8456C-0.105 3.32431 2.545 0.327012 6.053 0.00282776ZM4.85085 1.6249C2.73027 2.39122 1.26294 4.45175 1.33523 6.80459C1.42178 9.62155 3.68529 11.8849 6.50222 11.9716C8.85511 12.0439 10.9156 10.5766 11.6819 8.45595C9.77908 9.14471 7.59012 8.70566 6.09597 7.21181C4.60178 5.71762 4.16198 3.52791 4.85085 1.6249Z" fill="#FFFEFA"/>
</svg>
